#!OML:ASF I:\Actors\actors\Patient Classification 2\Patient 1\Session 1\actor1.ASF
:FULLY-SPECIFIED
:DEGREES
648
root -1.33978 18.3993 4.8882 -1.63371 13.0702 -3.04412
lowerback 24.361 3.64286 6.25367
upperback 3.29273 6.75035 3.12606
thorax -9.55156 3.02813 -2.22016
lowerneck -19.0372 -7.8883 -7.45397
upperneck 13.0778 -10.0693 7.62293
head 7.92676 -4.45238 2.44576
rclavicle 4.65156e-014 -4.77083e-015
rhumerus -14.0251 13.9326 -42.2449
rradius 87.2518
rwrist -17.6996
rhand -0.19703 -52.7442
rfingers 7.12502
rthumb 25.4016 -81.0719
lclavicle 4.65156e-014 -4.77083e-015
lhumerus -44.8069 -8.31342 80.9076
lradius 120.974
lwrist 13.259
lhand 1.08582 -27.4877
lfingers 7.12502
lthumb 26.63 0.659469
rfemur -1.21946 -7.44917 18.3758
rtibia 20.1904
rfoot -24.1828 -10.2563
rtoes -12.9419
lfemur -15.891 -6.05538 -8.61763
ltibia 33.4371
lfoot -16.5048 -0.3686
ltoes -58.899
649
root -1.30309 18.3938 4.91471 -1.79954 13.3333 -3.37767
lowerback 23.854 3.34266 6.52189
upperback 3.23652 6.43129 3.47477
thorax -9.38339 2.88471 -1.85589
lowerneck -19.1283 -7.88821 -7.44438
upperneck 13.6976 -10.1331 7.7441
head 8.16154 -4.45716 2.4683
rclavicle 3.29983e-014 9.54166e-015
rhumerus -18.1159 14.4199 -44.2958
rradius 89.3993
rwrist -18.5604
rhand 2.32359 -53.8168
rfingers 7.12502
rthumb 27.814 -81.7783
lclavicle 3.29983e-014 9.54166e-015
lhumerus -44.667 -8.38594 79.1637
lradius 120.086
lwrist 14.3612
lhand 0.959329 -27.4566
lfingers 7.12502
lthumb 26.5089 0.708835
rfemur -0.735578 -7.62886 18.6064
rtibia 19.7172
rfoot -24.1885 -10.4555
rtoes -13.433
lfemur -15.8698 -6.11263 -8.37649
ltibia 33.6243
lfoot -16.6384 -0.668506
ltoes -58.8333
650
root -1.25782 18.3885 4.94922 -1.94859 13.3875 -3.64645
lowerback 23.2404 3.09729 6.71246
upperback 3.19271 6.1422 3.77542
thorax -9.14206 2.76029 -1.5071
lowerneck -19.2364 -7.86273 -7.28197
upperneck 14.2242 -10.1694 7.71941
head 8.35011 -4.45553 2.42303
rclavicle 2.26615e-014 3.33958e-014
rhumerus -21.6036 13.9605 -45.6399
rradius 90.8891
rwrist -16.5521
rhand 1.02525 -51.422
rfingers 7.12502
rthumb 26.572 -79.5779
lclavicle 2.26615e-014 3.33958e-014
lhumerus -44.5424 -8.3473 77.407
lradius 119.3
lwrist 15.3416
lhand 0.763145 -27.3255
lfingers 7.12502
lthumb 26.3211 0.86815
rfemur -0.205095 -7.76814 18.7139
rtibia 19.1971
rfoot -24.0429 -10.5533
rtoes -14.3327
lfemur -15.7 -6.25362 -8.23051
ltibia 33.7696
lfoot -16.9149 -0.784576
ltoes -58.7477
651
root -1.21215 18.3831 4.98713 -2.1094 13.2474 -3.8289
lowerback 22.7335 2.88726 6.76193
upperback 3.10499 5.86769 4.0222
thorax -9.01082 2.63976 -1.15641
lowerneck -19.3854 -7.79079 -7.09985
upperneck 14.764 -10.1483 7.70136
head 8.5461 -4.42314 2.38427
rclavicle -2.0276e-014 -6.67916e-014
rhumerus -24.9154 13.6251 -46.7858
rradius 92.2843
rwrist -16.0659
rhand 0.797988 -50.8048
rfingers 7.12502
rthumb 26.3545 -78.9935
lclavicle -2.0276e-014 -6.67916e-014
lhumerus -44.5118 -8.11418 75.6143
lradius 118.642
lwrist 16.2535
lhand 0.639766 -27.2156
lfingers 7.12502
lthumb 26.203 0.99569
rfemur 0.363148 -7.79883 18.7218
rtibia 18.6562
rfoot -23.8651 -10.5471
rtoes -15.0717
lfemur -15.3664 -6.27661 -8.16974
ltibia 33.8465
lfoot -17.2521 -0.878885
ltoes -58.6552
652
root -1.16914 18.3782 5.02522 -2.27845 13.0359 -3.93124
lowerback 22.3632 2.68908 6.71371
upperback 2.95187 5.59678 4.22096
thorax -9.02619 2.51545 -0.817994
lowerneck -19.4452 -7.80748 -7.41954
upperneck 15.1994 -10.164 7.95617
head 8.73842 -4.41297 2.51401
rclavicle -7.95139e-016 9.54166e-015
rhumerus -28.1418 13.0158 -47.6346
rradius 93.6609
rwrist -16.3092
rhand 0.999193 -50.9211
rfingers 7.12502
rthumb 26.5471 -79.0809
lclavicle -7.95139e-016 9.54166e-015
lhumerus -44.5529 -7.7175 73.8675
lradius 118.016
lwrist 17.2079
lhand 0.584753 -27.1768
lfingers 7.12502
lthumb 26.1503 1.04226
rfemur 0.967728 -7.73258 18.6649
rtibia 18.0847
rfoot -23.7211 -10.552
rtoes -15.5665
lfemur -14.9417 -6.16598 -8.17967
ltibia 33.8573
lfoot -17.5935 -1.00909
ltoes -58.568
653
root -1.12717 18.376 5.06321 -2.39469 12.722 -4.03068
lowerback 21.9493 2.52661 6.63248
upperback 2.76797 5.36069 4.40583
thorax -9.04872 2.40798 -0.486091
lowerneck -19.4915 -7.82684 -7.55
upperneck 15.5789 -10.1926 8.01202
head 8.88892 -4.42012 2.5463
rclavicle -1.19271e-015 1.59028e-015
rhumerus -31.1533 11.9416 -48.1178
rradius 95.04
rwrist -16.9586
rhand 1.31605 -51.1483
rfingers 7.12502
rthumb 26.8503 -79.2618
lclavicle -1.19271e-015 1.59028e-015
lhumerus -44.6452 -7.17679 72.1938
lradius 117.43
lwrist 18.2004
lhand 0.572678 -27.1963
lfingers 7.12502
lthumb 26.1388 1.02446
rfemur 1.51668 -7.55322 18.6336
rtibia 17.4801
rfoot -23.5447 -10.5536
rtoes -16.0336
lfemur -14.533 -6.0972 -8.19456
ltibia 33.8231
lfoot -17.9821 -0.893382
ltoes -58.6026
654
root -1.08602 18.3777 5.10051 -2.4017 12.296 -4.12705
lowerback 21.4553 2.37337 6.54118
upperback 2.54306 5.12424 4.54366
thorax -9.06585 2.29965 -0.198281
lowerneck -19.5603 -7.78197 -7.36157
upperneck 15.9282 -10.1494 7.73919
head 8.9903 -4.40938 2.42732
rclavicle -1.55052e-014 -3.18055e-015
rhumerus -33.8106 10.5172 -48.3634
rradius 96.2769
rwrist -17.8183
rhand 1.71254 -51.4126
rfingers 7.12502
rthumb 27.2296 -79.4672
lclavicle -1.55052e-014 -3.18055e-015
lhumerus -44.8304 -6.4558 70.4849
lradius 116.922
lwrist 19.0992
lhand 0.503925 -27.2607
lfingers 7.12502
lthumb 26.073 0.96977
rfemur 1.93805 -7.25429 18.6374
rtibia 16.8512
rfoot -23.3288 -10.5529
rtoes -16.4164
lfemur -14.2059 -6.06021 -8.20609
ltibia 33.7618
lfoot -18.3084 -0.629701
ltoes -58.6028
655
root -1.0464 18.382 5.13898 -2.3613 11.8401 -4.19212
lowerback 20.9543 2.19514 6.43857
upperback 2.29172 4.84881 4.63398
thorax -9.10239 2.17137 0.0526282
lowerneck -19.595 -7.68449 -7.11481
upperneck 16.2007 -10.0431 7.45204
head 9.05103 -4.36968 2.30498
rclavicle -3.61788e-014 -3.02153e-014
rhumerus -36.1071 8.89879 -48.3467
rradius 97.2893
rwrist -18.4201
rhand 2.20997 -51.5224
rfingers 7.12502
rthumb 27.7054 -79.5015
lclavicle -3.61788e-014 -3.02153e-014
lhumerus -45.0607 -5.58305 68.7313
lradius 116.409
lwrist 19.8966
lhand 0.369817 -27.3268
lfingers 7.12502
lthumb 25.9445 0.92258
rfemur 2.32537 -6.908 18.6242
rtibia 16.191
rfoot -23.0913 -10.6176
rtoes -16.6999
lfemur -13.9004 -5.97766 -8.23953
ltibia 33.691
lfoot -18.535 -0.448981
ltoes -58.4145
656
root -1.00802 18.3858 5.17949 -2.30381 11.3568 -4.19287
lowerback 20.4265 2.00578 6.26923
upperback 2.03523 4.53638 4.67472
thorax -9.12782 2.02757 0.29563
lowerneck -19.588 -7.56973 -6.98142
upperneck 16.4267 -9.91069 7.31049
head 9.10201 -4.31145 2.25522
rclavicle -4.94974e-014 -3.81667e-014
rhumerus -38.1148 7.24641 -48.0834
rradius 98.1587
rwrist -18.743
rhand 3.17181 -51.9609
rfingers 7.12502
rthumb 28.6247 -79.7886
lclavicle -4.94974e-014 -3.81667e-014
lhumerus -45.325 -4.67487 66.9243
lradius 115.872
lwrist 20.715
lhand 0.271622 -27.2728
lfingers 7.12502
lthumb 25.8505 0.990328
rfemur 2.71932 -6.59542 18.5313
rtibia 15.5014
rfoot -22.8021 -10.6807
rtoes -17.0754
lfemur -13.5737 -5.85854 -8.33676
ltibia 33.611
lfoot -18.7858 -0.317653
ltoes -58.139
657
root -0.970919 18.3888 5.21932 -2.2365 10.8526 -4.20534
lowerback 19.8913 1.76697 6.07381
upperback 1.75987 4.15284 4.69684
thorax -9.16777 1.85017 0.549593
lowerneck -19.5383 -7.40236 -6.871
upperneck 16.6621 -9.71446 7.22534
head 9.14898 -4.21998 2.2391
rclavicle 6.30147e-014 6.67916e-014
rhumerus -39.7865 5.59967 -47.5947
rradius 99.0332
rwrist -19.4597
rhand 5.44448 -54.7262
rfingers 7.12502
rthumb 30.7938 -82.1667
lclavicle 6.30147e-014 6.67916e-014
lhumerus -45.7186 -3.62032 65.0183
lradius 115.364
lwrist 21.5431
lhand 0.332736 -27.1438
lfingers 7.12502
lthumb 25.909 1.11078
rfemur 3.10074 -6.31345 18.4492
rtibia 14.7904
rfoot -22.5019 -10.692
rtoes -17.362
lfemur -13.2469 -5.75671 -8.42545
ltibia 33.5107
lfoot -19.0599 -0.113544
ltoes -57.9984
658
root -0.935975 18.3931 5.25692 -2.17062 10.3161 -4.26564
lowerback 19.3908 1.5072 5.92945
upperback 1.4724 3.757 4.71295
thorax -9.23163 1.66412 0.767713
lowerneck -19.4759 -7.19944 -6.59563
upperneck 16.8769 -9.48443 6.99961
head 9.16811 -4.11818 2.15424
rclavicle -2.56432e-014 6.36111e-015
rhumerus -41.1945 3.8831 -46.8337
rradius 99.9114
rwrist -20.4405
rhand 2.49572 -53.0525
rfingers 7.12502
rthumb 27.9786 -80.9873
lclavicle -2.56432e-014 6.36111e-015
lhumerus -46.2238 -2.49499 63.0872
lradius 114.935
lwrist 22.2819
lhand 0.39699 -27.0027
lfingers 7.12502
lthumb 25.9706 1.24285
rfemur 3.46758 -5.9411 18.4418
rtibia 14.065
rfoot -22.2499 -10.7144
rtoes -17.1606
lfemur -12.9229 -5.63999 -8.46167
ltibia 33.393
lfoot -19.3016 0.151234
ltoes -57.9122
659
root -0.902237 18.3976 5.29386 -2.15427 9.75085 -4.27875
lowerback 18.9558 1.25868 5.78434
upperback 1.19605 3.37766 4.69591
thorax -9.31263 1.48495 0.941491
lowerneck -19.4511 -6.99486 -6.24661
upperneck 17.1509 -9.24202 6.62767
head 9.20304 -4.0198 2.00791
rclavicle 5.00937e-014 1.74931e-014
rhumerus -42.4893 2.37055 -45.9207
rradius 100.55
rwrist -20.4533
rhand 3.43839 -54.1859
rfingers 7.12502
rthumb 28.8794 -81.9703
lclavicle 5.00937e-014 1.74931e-014
lhumerus -46.7475 -1.43709 61.2206
lradius 114.565
lwrist 22.9367
lhand 0.245967 -26.8108
lfingers 7.12502
lthumb 25.8259 1.45587
rfemur 3.90242 -5.51557 18.3869
rtibia 13.325
rfoot -21.9852 -10.7678
rtoes -17.0595
lfemur -12.5319 -5.46278 -8.54966
ltibia 33.2648
lfoot -19.5671 0.373928
ltoes -57.7644
660
root -0.868494 18.4015 5.32767 -2.17843 9.0342 -4.28508
lowerback 18.5863 1.05443 5.65292
upperback 0.938446 3.06289 4.66837
thorax -9.40364 1.3357 1.07597
lowerneck -19.464 -6.79064 -6.01375
upperneck 17.5462 -8.97989 6.2941
head 9.29514 -3.91304 1.89406
rclavicle 3.89618e-014 -1.43125e-014
rhumerus -43.6301 1.17869 -44.9378
rradius 100.853
rwrist -19.4606
rhand 1.6746 -49.487
rfingers 7.12502
rthumb 27.1933 -77.5473
lclavicle 3.89618e-014 -1.43125e-014
lhumerus -47.194 -0.371641 59.4073
lradius 114.165
lwrist 23.6124
lhand 0.0163847 -26.6286
lfingers 7.12502
lthumb 25.6061 1.66993
rfemur 4.36901 -5.08488 18.3002
rtibia 12.5402
rfoot -21.5455 -10.7723
rtoes -17.4052
lfemur -12.0786 -5.16999 -8.65045
ltibia 33.1334
lfoot -19.8535 0.650379
ltoes -57.6653
